<svg width="8" height="16" viewBox="0 0 8 16" fill="none" xmlns="http://www.w3.org/2000/svg">
<mask id="mask0_44_70" style="mask-type:alpha" maskUnits="userSpaceOnUse" x="0" y="0" width="8" height="16">
<rect width="8" height="16" fill="#D9D9D9"/>
</mask>
<g mask="url(#mask0_44_70)">
<path fill-rule="evenodd" clip-rule="evenodd" d="M7.02146 0.681741C7.38349 -0.227247 8.61654 -0.227247 8.97855 0.681741L10.6597 4.90285L15.0234 5.26818C15.9631 5.34686 16.3441 6.57151 15.6281 7.21197L12.3035 10.1861L13.3193 14.633C13.538 15.5906 12.5404 16.3475 11.736 15.8343L7.99999 13.4514L4.26409 15.8343C3.45959 16.3475 2.46203 15.5906 2.68077 14.633L3.6965 10.1861L0.371842 7.21197C-0.344093 6.57151 0.0369263 5.34686 0.976616 5.26818L5.3403 4.90285L7.02146 0.681741Z" fill="#00B8FC" fill-opacity="0.84"/>
</g>
</svg>
