<svg
  xmlns="http://www.w3.org/2000/svg"
  width="247"
  height="307"
  viewBox="0 0 247 307"
  fill="none"
>
  <path
    d="M-23 307C-19.2776 296.745 -17.6263 285.82 -12.9039 275.884C-7.67528 264.879 0.837425 257.278 11.5107 251.857C19.6314 247.732 28.2553 245.034 37.0674 242.956C50.3858 239.818 62.2382 233.874 72.5874 224.895C73.9887 223.681 75.3714 222.435 76.8376 221.308C82.5631 216.913 84.8595 210.792 85.6404 203.891C86.3688 197.458 85.6157 191.124 84.3873 184.818C84.2113 183.907 83.8595 183.523 82.844 183.316C80.1402 182.764 77.3993 182.185 74.8498 181.166C73.3158 180.553 72.1306 179.078 70.7601 178.031C70.3188 177.694 69.8033 177.396 69.2724 177.251C68.794 177.118 68.2508 177.226 67.7353 177.211C64.6302 177.124 63.0222 175.736 62.4789 172.651C62.3184 171.741 62.2289 170.818 62.0808 169.721C61.5869 169.907 61.1301 170.077 60.6733 170.251C56.0928 171.964 51.963 171.177 48.7314 167.51C46.5338 165.016 44.8208 162.098 42.8145 159.429C42.2929 158.732 41.5367 158.165 40.7866 157.703C40.1446 157.31 39.3668 157.102 38.6291 156.901C33.6382 155.538 31.1381 152.06 30.0701 147.163C29.5701 144.874 28.6133 142.684 27.8849 140.442C27.5978 139.562 27.1842 138.676 27.1472 137.778C27.0453 135.235 27.1132 132.683 27.1132 130.137C27.246 130.149 27.3756 130.165 27.5083 130.177C28.3016 131.081 29.0917 131.986 29.8849 132.893L30.4128 132.46C30.1998 132.122 30.0115 131.766 29.7707 131.45C25.5082 125.912 24.181 119.658 25.002 112.782C25.4095 109.363 25.4681 105.903 25.6872 102.397C27.7521 103.211 29.8911 103.159 32.132 101.604C30.885 101.254 29.8479 100.962 28.4837 100.581C32.382 100.355 35.9006 100.151 39.4193 99.9465C39.4317 99.7824 39.444 99.6151 39.4563 99.4509C38.3051 99.2558 37.1198 99.1753 36.0118 98.8377C34.3635 98.3328 32.703 97.7784 31.1782 96.9916C30.0269 96.3969 29.3757 95.2385 29.28 93.6743C30.3665 94.2133 31.2893 94.7522 32.2678 95.1394C34.4129 95.9881 35.6784 95.2292 35.9901 92.9929C36.2649 91.0106 36.8822 90.0876 39.1199 88.3654C37.3791 84.534 38.4995 80.6034 38.8545 76.679C39.1508 73.4175 39.3391 70.1436 39.5644 66.9935C39.694 67.0988 40.157 67.5108 40.6508 67.8732C41.9318 68.8117 43.4071 68.409 44.0553 66.9502C44.4936 65.9621 44.8239 64.9152 45.3517 63.9798C45.8239 63.1404 46.3424 62.078 47.1202 61.7156C48.6573 60.997 49.1759 59.7302 49.7685 58.358C50.9013 55.7222 52.5618 53.5726 55.3397 52.4513C55.7533 52.2841 56.0867 51.6708 56.2564 51.1938C57.3429 48.1367 58.3275 45.0424 59.4263 41.9884C62.9018 32.3122 67.9668 23.5962 76.0104 17.0824C83.6156 10.9248 91.6839 5.33712 101.011 2.02293C107.141 -0.154527 113.413 -0.956747 119.7 1.56142C121.272 2.19019 122.781 2.98312 124.361 3.5902C127.124 4.6526 130.003 5.01809 132.818 4.00525C138.893 1.8216 144.578 2.89329 150.032 5.88536C154.628 8.40662 159.208 10.9744 163.671 13.7248C171.033 18.2625 176.28 24.8351 180.033 32.4732C184.62 41.8025 188.728 51.3703 193.055 60.8297C194.555 64.1068 195.988 67.421 197.639 70.6205C199.923 75.0467 201.269 75.0963 204.124 71.0821C204.263 70.8838 204.426 70.7042 204.676 70.3975C204.328 71.7975 203.945 73.0241 203.723 74.2785C203.173 77.3759 204.445 78.491 207.476 77.5153C207.553 78.1131 207.547 78.7233 207.732 79.2684C207.883 79.7175 208.266 80.0892 208.544 80.495C208.936 80.2131 209.433 80.0056 209.698 79.6308C210.22 78.8905 210.612 78.0604 211.445 77.314C211.519 78.6211 211.532 79.9344 211.701 81.226C211.778 81.8176 212.124 82.8087 212.433 82.8428C213.01 82.9079 213.887 82.5733 214.217 82.1056C215.238 80.653 216.063 79.0609 217.075 77.3357C217.603 81.0061 216.803 84.184 214.89 87.1048C217.063 88.4584 219.134 87.8389 219.717 85.4632C220.112 83.8525 219.995 82.1056 220.053 80.4207C220.072 79.8662 219.933 79.3056 219.856 78.6582C220.998 79.7268 221.896 81.7711 222.134 84.5309C222.313 86.6061 222.168 88.7092 222.168 91.2677C222.828 90.2951 223.279 89.6292 223.73 88.9632C223.853 88.988 223.973 89.0128 224.097 89.0407C223.754 90.6513 223.412 92.265 223.026 94.0925C224.125 94.9009 225.384 94.4053 226.588 93.346C227.464 98.8903 225.245 100.95 218.411 101.037C219.14 102.864 219.797 104.689 220.587 106.451C221.412 108.285 222.393 108.34 223.622 106.714C223.952 106.278 224.264 105.822 224.585 105.376C224.733 105.416 224.884 105.457 225.032 105.497C224.906 106.349 224.983 107.303 224.612 108.031C223.205 110.815 222.236 113.693 221.782 116.799C221.337 119.822 219.587 122.08 216.942 123.617C215.343 124.546 213.723 125.441 212.155 126.42C211.121 127.064 210.593 128.018 210.244 129.26C209.522 131.828 208.541 134.327 207.59 136.827C206.849 138.778 207.445 140.274 209.383 141.002C210.927 141.581 212.14 140.844 212.825 138.877C213.01 138.351 213.118 137.796 213.353 137.292C213.458 139.125 212.964 140.733 211.393 141.854C210.815 142.266 210.152 142.625 209.473 142.811C206.51 143.616 203.88 144.812 201.651 147.135C199.942 148.916 197.281 149.808 195.66 151.642C192.747 154.94 190.216 158.598 187.679 162.213C186.024 164.57 184.663 167.129 183.129 169.572C181.706 171.84 179.793 173.351 176.962 173.283C173.629 173.203 170.292 173.165 166.965 172.973C166.039 172.921 165.604 173.069 165.249 173.946C163.742 177.66 161.752 181.064 158.767 183.811C158.477 184.077 158.233 184.452 158.091 184.824C154.804 193.463 153.844 202.216 156.924 211.133C158.005 214.255 159.681 217.086 162.258 219.149C168.203 223.907 174.132 228.711 180.336 233.118C187.645 238.309 196.056 241.048 204.682 243.216C212.346 245.142 220.06 246.97 227.548 249.463C237.242 252.694 245.839 257.894 252.401 266.009C256.941 271.628 259.796 278.101 261.963 284.931C264.296 292.291 266.651 299.641 269 306.994H-23V307Z"
    fill="#5E5E5E"
    fill-opacity="0.5"
  />
</svg>
